<?xml version="1.0" standalone="no"?>
<!DOCTYPE svg PUBLIC "-//W3C//DTD SVG 20010904//EN"
 "http://www.w3.org/TR/2001/REC-SVG-20010904/DTD/svg10.dtd">
<svg version="1.0" xmlns="http://www.w3.org/2000/svg"
 width="180.000000pt" height="180.000000pt" viewBox="0 0 180.000000 180.000000"
 preserveAspectRatio="xMidYMid meet">

<g transform="translate(0.000000,180.000000) scale(0.100000,-0.100000)"
fill="#13abe9" stroke="none">
<path d="M0 900 l0 -900 900 0 900 0 0 900 0 900 -900 0 -900 0 0 -900z m631
579 c48 -12 113 -57 176 -121 l53 -54 -60 -59 -60 -59 -63 61 c-67 67 -98 83
-155 83 -131 -1 -220 -144 -164 -262 12 -24 53 -74 92 -113 l70 -69 277 275
c295 293 319 311 427 329 155 25 304 -57 373 -205 23 -50 27 -74 27 -140 0
-106 -29 -171 -121 -266 l-67 -70 -58 58 -57 57 55 58 c83 87 103 154 69 235
-21 50 -42 72 -90 94 -87 40 -149 19 -258 -89 l-77 -77 187 -187 188 -188
-235 -235 c-178 -177 -242 -235 -260 -235 -32 0 -646 610 -683 679 -73 134
-52 291 56 408 89 96 213 129 358 92z"/>
<path d="M828 936 c-69 -30 -108 -91 -108 -167 0 -139 143 -225 267 -161 89
46 124 158 75 247 -16 30 -64 72 -95 84 -37 14 -105 13 -139 -3z m92 -81 c0
-25 39 -57 60 -50 51 16 25 -101 -29 -129 -40 -21 -69 -20 -108 4 -58 35 -62
112 -11 168 25 26 88 32 88 7z"/>
</g>
</svg>
