<?xml version="1.0" encoding="UTF-8"?>
<!DOCTYPE svg PUBLIC "-//W3C//DTD SVG 1.1//EN" "http://www.w3.org/Graphics/SVG/1.1/DTD/svg11.dtd">
<svg xmlns="http://www.w3.org/2000/svg" version="1.1" width="180px" height="180px" style="shape-rendering:geometricPrecision; text-rendering:geometricPrecision; image-rendering:optimizeQuality; fill-rule:evenodd; clip-rule:evenodd" xmlns:xlink="http://www.w3.org/1999/xlink">
<g><path style="opacity:0.966" fill="#0061fe" d="M 17.5,-0.5 C 65.5,-0.5 113.5,-0.5 161.5,-0.5C 164.395,0.399943 167.062,1.73328 169.5,3.5C 169.5,4.5 169.5,5.5 169.5,6.5C 170.5,6.5 171.5,6.5 172.5,6.5C 172.5,7.5 172.5,8.5 172.5,9.5C 173.5,9.5 174.5,9.5 175.5,9.5C 175.5,10.5 175.5,11.5 175.5,12.5C 173.185,10.8583 170.851,9.19163 168.5,7.5C 166.465,8.59654 165.132,10.2632 164.5,12.5C 162.689,10.8384 161.022,10.6718 159.5,12C 155.848,12.4986 152.182,12.6653 148.5,12.5C 148.833,9.5 147.5,8.16667 144.5,8.5C 144.5,9.5 144.5,10.5 144.5,11.5C 140.625,11.3203 136.958,10.3203 133.5,8.5C 132.663,10.5053 131.163,11.5053 129,11.5C 126.834,10.8357 124.834,9.83573 123,8.5C 120.863,9.07665 118.696,9.40999 116.5,9.5C 116.5,10.5 116.5,11.5 116.5,12.5C 115.127,12.6567 113.793,12.49 112.5,12C 111.086,9.57187 109.086,7.73853 106.5,6.5C 105.534,8.39605 105.201,10.396 105.5,12.5C 103.833,12.5 102.167,12.5 100.5,12.5C 100.769,10.5714 100.269,8.90469 99,7.5C 96.288,9.40703 93.288,10.7404 90,11.5C 88.0289,11.5317 86.5289,10.6984 85.5,9C 80.3278,7.43852 78.9945,8.60519 81.5,12.5C 80.6667,12.8333 79.8333,13.1667 79,13.5C 76.4761,12.8218 74.3095,11.4885 72.5,9.5C 71.6721,10.4147 70.6721,11.0814 69.5,11.5C 67.5952,10.935 65.9285,9.93503 64.5,8.5C 61.2423,9.41734 57.909,9.75067 54.5,9.5C 54.5,10.5 54.5,11.5 54.5,12.5C 50.8227,10.5473 46.8227,9.54728 42.5,9.5C 42.5,8.5 42.5,7.5 42.5,6.5C 38.8358,7.49486 35.1692,8.49486 31.5,9.5C 31.719,8.32496 31.3857,7.32496 30.5,6.5C 29.9005,9.0669 28.4005,10.7336 26,11.5C 24.4329,10.1439 22.5996,9.47724 20.5,9.5C 20.719,8.32496 20.3857,7.32496 19.5,6.5C 15.9763,9.64509 12.3096,9.97842 8.5,7.5C 8.30618,9.0701 8.30618,10.5701 8.5,12C 6.69923,12.3173 6.36589,12.984 7.5,14C 5.89253,13.9813 4.22586,13.8146 2.5,13.5C 2.74085,16.0336 1.74085,17.7002 -0.5,18.5C -0.5,18.1667 -0.5,17.8333 -0.5,17.5C 1.77331,13.8732 4.10664,10.2065 6.5,6.5C 10.2065,4.10664 13.8732,1.77331 17.5,-0.5 Z"/></g>
<g><path style="opacity:0.991" fill="#0066fe" d="M 175.5,12.5 C 176.301,14.9995 177.634,16.9995 179.5,18.5C 179.5,26.8333 179.5,35.1667 179.5,43.5C 177.409,43.6816 175.409,43.3482 173.5,42.5C 171.49,44.1713 169.157,44.838 166.5,44.5C 166.5,43.1667 166.5,41.8333 166.5,40.5C 161.258,41.4357 156.091,42.769 151,44.5C 143.649,41.1978 136.816,41.8644 130.5,46.5C 129.561,44.9466 128.394,43.6133 127,42.5C 124.994,44.0023 123.328,43.669 122,41.5C 120.211,43.229 118.044,43.8957 115.5,43.5C 115.719,42.325 115.386,41.325 114.5,40.5C 113.798,43.5907 111.965,45.5907 109,46.5C 106.709,44.9387 104.209,43.772 101.5,43C 94.0854,43.0448 86.7521,43.2115 79.5,43.5C 78.5224,43.0233 77.6891,42.3567 77,41.5C 76.3109,42.3567 75.4776,43.0233 74.5,43.5C 72.6675,42.7515 71.0009,41.7515 69.5,40.5C 68.646,41.5217 67.646,42.3551 66.5,43C 59.1503,44.0591 51.817,44.2258 44.5,43.5C 41.5701,43.1536 39.2368,44.1536 37.5,46.5C 36.2393,44.5466 35.0726,42.5466 34,40.5C 34.1851,44.5113 32.3518,46.5113 28.5,46.5C 28.5,45.5 28.5,44.5 28.5,43.5C 22.8663,43.1996 17.1996,43.1996 11.5,43.5C 11.719,42.325 11.3857,41.325 10.5,40.5C 8.40059,41.9652 6.23392,43.2985 4,44.5C 2.59362,43.5862 1.09362,42.9195 -0.5,42.5C -0.5,34.5 -0.5,26.5 -0.5,18.5C 1.74085,17.7002 2.74085,16.0336 2.5,13.5C 4.22586,13.8146 5.89253,13.9813 7.5,14C 6.36589,12.984 6.69923,12.3173 8.5,12C 8.30618,10.5701 8.30618,9.0701 8.5,7.5C 12.3096,9.97842 15.9763,9.64509 19.5,6.5C 20.3857,7.32496 20.719,8.32496 20.5,9.5C 22.5996,9.47724 24.4329,10.1439 26,11.5C 28.4005,10.7336 29.9005,9.0669 30.5,6.5C 31.3857,7.32496 31.719,8.32496 31.5,9.5C 35.1692,8.49486 38.8358,7.49486 42.5,6.5C 42.5,7.5 42.5,8.5 42.5,9.5C 46.8227,9.54728 50.8227,10.5473 54.5,12.5C 54.5,11.5 54.5,10.5 54.5,9.5C 57.909,9.75067 61.2423,9.41734 64.5,8.5C 65.9285,9.93503 67.5952,10.935 69.5,11.5C 70.6721,11.0814 71.6721,10.4147 72.5,9.5C 74.3095,11.4885 76.4761,12.8218 79,13.5C 79.8333,13.1667 80.6667,12.8333 81.5,12.5C 78.9945,8.60519 80.3278,7.43852 85.5,9C 86.5289,10.6984 88.0289,11.5317 90,11.5C 93.288,10.7404 96.288,9.40703 99,7.5C 100.269,8.90469 100.769,10.5714 100.5,12.5C 102.167,12.5 103.833,12.5 105.5,12.5C 105.201,10.396 105.534,8.39605 106.5,6.5C 109.086,7.73853 111.086,9.57187 112.5,12C 113.793,12.49 115.127,12.6567 116.5,12.5C 116.5,11.5 116.5,10.5 116.5,9.5C 118.696,9.40999 120.863,9.07665 123,8.5C 124.834,9.83573 126.834,10.8357 129,11.5C 131.163,11.5053 132.663,10.5053 133.5,8.5C 136.958,10.3203 140.625,11.3203 144.5,11.5C 144.5,10.5 144.5,9.5 144.5,8.5C 147.5,8.16667 148.833,9.5 148.5,12.5C 152.182,12.6653 155.848,12.4986 159.5,12C 161.022,10.6718 162.689,10.8384 164.5,12.5C 165.132,10.2632 166.465,8.59654 168.5,7.5C 170.851,9.19163 173.185,10.8583 175.5,12.5 Z"/></g>
<g><path style="opacity:0.051" fill="#0839ff" d="M 175.5,12.5 C 176.496,12.4142 177.329,12.7476 178,13.5C 178.21,15.0581 178.71,16.3915 179.5,17.5C 179.5,17.8333 179.5,18.1667 179.5,18.5C 177.634,16.9995 176.301,14.9995 175.5,12.5 Z"/></g>
<g><path style="opacity:1" fill="#006dfe" d="M 179.5,43.5 C 179.5,49.1667 179.5,54.8333 179.5,60.5C 178.661,61.6412 177.994,62.9745 177.5,64.5C 176.333,64.8333 175.167,65.1667 174,65.5C 167.427,63.3094 160.761,62.6427 154,63.5C 152.135,63.2945 150.468,62.6278 149,61.5C 144.782,65.7597 140.116,66.4264 135,63.5C 125.94,64.4 116.94,64.0667 108,62.5C 104.458,66.4336 100.958,66.4336 97.5,62.5C 96.1667,63.5 94.8333,64.5 93.5,65.5C 92.5,64.8333 91.5,64.1667 90.5,63.5C 88.8169,64.5921 86.9836,65.2587 85,65.5C 78.8422,65.7857 72.6755,65.1191 66.5,63.5C 62.5501,65.1635 58.5501,65.8301 54.5,65.5C 49.7401,63.6824 44.7401,63.0158 39.5,63.5C 38.8333,59.5 38.1667,59.5 37.5,63.5C 35.5992,63.4332 33.7659,63.7665 32,64.5C 27.4154,62.2384 22.9154,62.5717 18.5,65.5C 16.9707,65.4712 15.804,64.8045 15,63.5C 10.5869,66.042 6.75352,65.2087 3.5,61C 2.20677,60.51 0.873441,60.3433 -0.5,60.5C -0.5,54.5 -0.5,48.5 -0.5,42.5C 1.09362,42.9195 2.59362,43.5862 4,44.5C 6.23392,43.2985 8.40059,41.9652 10.5,40.5C 11.3857,41.325 11.719,42.325 11.5,43.5C 17.1996,43.1996 22.8663,43.1996 28.5,43.5C 28.5,44.5 28.5,45.5 28.5,46.5C 32.3518,46.5113 34.1851,44.5113 34,40.5C 35.0726,42.5466 36.2393,44.5466 37.5,46.5C 39.2368,44.1536 41.5701,43.1536 44.5,43.5C 51.817,44.2258 59.1503,44.0591 66.5,43C 67.646,42.3551 68.646,41.5217 69.5,40.5C 71.0009,41.7515 72.6675,42.7515 74.5,43.5C 75.4776,43.0233 76.3109,42.3567 77,41.5C 77.6891,42.3567 78.5224,43.0233 79.5,43.5C 86.7521,43.2115 94.0854,43.0448 101.5,43C 104.209,43.772 106.709,44.9387 109,46.5C 111.965,45.5907 113.798,43.5907 114.5,40.5C 115.386,41.325 115.719,42.325 115.5,43.5C 118.044,43.8957 120.211,43.229 122,41.5C 123.328,43.669 124.994,44.0023 127,42.5C 128.394,43.6133 129.561,44.9466 130.5,46.5C 136.816,41.8644 143.649,41.1978 151,44.5C 156.091,42.769 161.258,41.4357 166.5,40.5C 166.5,41.8333 166.5,43.1667 166.5,44.5C 169.157,44.838 171.49,44.1713 173.5,42.5C 175.409,43.3482 177.409,43.6816 179.5,43.5 Z"/></g>
<g><path style="opacity:1" fill="#0073fe" d="M -0.5,60.5 C 0.873441,60.3433 2.20677,60.51 3.5,61C 6.75352,65.2087 10.5869,66.042 15,63.5C 15.804,64.8045 16.9707,65.4712 18.5,65.5C 22.9154,62.5717 27.4154,62.2384 32,64.5C 33.7659,63.7665 35.5992,63.4332 37.5,63.5C 38.1667,59.5 38.8333,59.5 39.5,63.5C 44.7401,63.0158 49.7401,63.6824 54.5,65.5C 58.5501,65.8301 62.5501,65.1635 66.5,63.5C 72.6755,65.1191 78.8422,65.7857 85,65.5C 86.9836,65.2587 88.8169,64.5921 90.5,63.5C 91.5,64.1667 92.5,64.8333 93.5,65.5C 94.8333,64.5 96.1667,63.5 97.5,62.5C 100.958,66.4336 104.458,66.4336 108,62.5C 116.94,64.0667 125.94,64.4 135,63.5C 140.116,66.4264 144.782,65.7597 149,61.5C 150.468,62.6278 152.135,63.2945 154,63.5C 160.761,62.6427 167.427,63.3094 174,65.5C 175.167,65.1667 176.333,64.8333 177.5,64.5C 177.994,62.9745 178.661,61.6412 179.5,60.5C 179.5,68.5 179.5,76.5 179.5,84.5C 176.421,84.7399 173.421,84.4066 170.5,83.5C 168.06,85.9222 165.726,85.9222 163.5,83.5C 162.707,83.9312 161.873,84.2645 161,84.5C 159.635,83.5444 158.135,82.8777 156.5,82.5C 153.96,83.0199 151.46,83.6866 149,84.5C 147.188,84.5066 145.688,83.84 144.5,82.5C 143.614,83.325 143.281,84.325 143.5,85.5C 139.815,85.1953 136.315,84.1953 133,82.5C 129.065,84.3823 124.898,84.8823 120.5,84C 118.714,83.2155 117.214,82.0488 116,80.5C 113.747,83.0471 110.914,84.7138 107.5,85.5C 106.148,83.3636 104.482,83.0302 102.5,84.5C 99.8805,81.8529 97.2138,81.8529 94.5,84.5C 91.6727,83.0678 88.6727,82.4012 85.5,82.5C 85.5,83.5 85.5,84.5 85.5,85.5C 83.8333,85.5 82.1667,85.5 80.5,85.5C 80.7852,83.712 80.4519,82.0453 79.5,80.5C 76.1105,82.6992 72.4439,84.0325 68.5,84.5C 68.5,83.1667 68.5,81.8333 68.5,80.5C 65.1633,80.6482 62.33,81.9815 60,84.5C 57.8606,83.7636 55.8606,82.7636 54,81.5C 51.3,82.3444 48.6333,83.3444 46,84.5C 44.9079,83.7039 43.7412,83.0372 42.5,82.5C 40.2082,84.4487 37.5415,85.4487 34.5,85.5C 34.5,84.5 34.5,83.5 34.5,82.5C 30.7432,82.0708 27.2432,82.7375 24,84.5C 20.3809,81.8475 16.7142,81.8475 13,84.5C 8.63286,83.0303 4.13286,82.0303 -0.5,81.5C -0.5,74.5 -0.5,67.5 -0.5,60.5 Z"/></g>
<g><path style="opacity:1" fill="#0079fe" d="M 179.5,84.5 C 179.5,90.5 179.5,96.5 179.5,102.5C 177.833,102.5 176.167,102.5 174.5,102.5C 174.5,101.5 174.5,100.5 174.5,99.5C 172.5,99.5 170.5,99.5 168.5,99.5C 168.5,100.833 168.5,102.167 168.5,103.5C 164.543,103.992 160.877,103.325 157.5,101.5C 151.54,102.386 145.54,103.053 139.5,103.5C 139.649,102.448 139.483,101.448 139,100.5C 137.562,101.718 135.895,102.385 134,102.5C 131.811,101.312 129.644,101.312 127.5,102.5C 124.034,102.183 120.868,101.183 118,99.5C 117.51,100.793 117.343,102.127 117.5,103.5C 113.637,101.82 109.637,100.487 105.5,99.5C 105.5,100.833 105.5,102.167 105.5,103.5C 102.512,103.561 99.6789,102.895 97,101.5C 94.3333,102.167 91.6667,102.833 89,103.5C 87.2894,103.561 85.956,102.894 85,101.5C 84.4169,103.002 83.5836,104.335 82.5,105.5C 80.5128,101.085 77.6794,100.418 74,103.5C 72.7387,103.241 71.7387,102.574 71,101.5C 70.4806,102.516 69.6473,103.182 68.5,103.5C 66.641,102.31 64.8077,102.31 63,103.5C 61.3435,102.516 59.6768,101.516 58,100.5C 56.2111,102.229 54.0444,102.896 51.5,102.5C 51.5,103.5 51.5,104.5 51.5,105.5C 48.4114,105.094 45.7447,103.76 43.5,101.5C 41.7924,103.691 39.7924,104.024 37.5,102.5C 36.6143,103.325 36.281,104.325 36.5,105.5C 34.0835,105.039 32.2502,103.706 31,101.5C 25.8204,102.81 20.6537,102.81 15.5,101.5C 14.1476,102.518 13.1476,103.851 12.5,105.5C 11.066,103.78 10.2326,101.78 10,99.5C 7.10345,102.231 3.60345,103.231 -0.5,102.5C -0.5,95.5 -0.5,88.5 -0.5,81.5C 4.13286,82.0303 8.63286,83.0303 13,84.5C 16.7142,81.8475 20.3809,81.8475 24,84.5C 27.2432,82.7375 30.7432,82.0708 34.5,82.5C 34.5,83.5 34.5,84.5 34.5,85.5C 37.5415,85.4487 40.2082,84.4487 42.5,82.5C 43.7412,83.0372 44.9079,83.7039 46,84.5C 48.6333,83.3444 51.3,82.3444 54,81.5C 55.8606,82.7636 57.8606,83.7636 60,84.5C 62.33,81.9815 65.1633,80.6482 68.5,80.5C 68.5,81.8333 68.5,83.1667 68.5,84.5C 72.4439,84.0325 76.1105,82.6992 79.5,80.5C 80.4519,82.0453 80.7852,83.712 80.5,85.5C 82.1667,85.5 83.8333,85.5 85.5,85.5C 85.5,84.5 85.5,83.5 85.5,82.5C 88.6727,82.4012 91.6727,83.0678 94.5,84.5C 97.2138,81.8529 99.8805,81.8529 102.5,84.5C 104.482,83.0302 106.148,83.3636 107.5,85.5C 110.914,84.7138 113.747,83.0471 116,80.5C 117.214,82.0488 118.714,83.2155 120.5,84C 124.898,84.8823 129.065,84.3823 133,82.5C 136.315,84.1953 139.815,85.1953 143.5,85.5C 143.281,84.325 143.614,83.325 144.5,82.5C 145.688,83.84 147.188,84.5066 149,84.5C 151.46,83.6866 153.96,83.0199 156.5,82.5C 158.135,82.8777 159.635,83.5444 161,84.5C 161.873,84.2645 162.707,83.9312 163.5,83.5C 165.726,85.9222 168.06,85.9222 170.5,83.5C 173.421,84.4066 176.421,84.7399 179.5,84.5 Z"/></g>
<g><path style="opacity:1" fill="#0080fe" d="M 179.5,102.5 C 179.5,110.5 179.5,118.5 179.5,126.5C 176.245,126.986 173.578,125.986 171.5,123.5C 168.182,125.633 164.515,126.633 160.5,126.5C 160.762,125.022 160.429,123.689 159.5,122.5C 158.756,123.991 158.09,125.491 157.5,127C 153.867,126.632 150.2,126.132 146.5,125.5C 146.719,124.325 146.386,123.325 145.5,122.5C 143.817,124.514 141.817,126.18 139.5,127.5C 137.896,127.061 136.396,126.394 135,125.5C 132.333,128.167 129.667,128.167 127,125.5C 124.598,126.149 122.098,126.149 119.5,125.5C 117.514,125.787 115.68,126.453 114,127.5C 112.416,127.012 111.249,126.012 110.5,124.5C 109.73,126.272 108.397,127.272 106.5,127.5C 104.388,125.98 102.054,124.98 99.5,124.5C 95.5514,124.213 91.5514,124.547 87.5,125.5C 87.5,124.5 87.5,123.5 87.5,122.5C 84.1028,124.054 80.6028,125.387 77,126.5C 73.0636,125.797 69.2303,124.797 65.5,123.5C 65.5,124.833 65.5,126.167 65.5,127.5C 57.3592,124.921 49.1926,124.921 41,127.5C 40.228,127.355 39.5613,127.022 39,126.5C 38.9998,122.073 37.8332,121.573 35.5,125C 28.4303,126.495 21.4303,125.995 14.5,123.5C 9.6155,124.05 4.6155,125.05 -0.5,126.5C -0.5,118.5 -0.5,110.5 -0.5,102.5C 3.60345,103.231 7.10345,102.231 10,99.5C 10.2326,101.78 11.066,103.78 12.5,105.5C 13.1476,103.851 14.1476,102.518 15.5,101.5C 20.6537,102.81 25.8204,102.81 31,101.5C 32.2502,103.706 34.0835,105.039 36.5,105.5C 36.281,104.325 36.6143,103.325 37.5,102.5C 39.7924,104.024 41.7924,103.691 43.5,101.5C 45.7447,103.76 48.4114,105.094 51.5,105.5C 51.5,104.5 51.5,103.5 51.5,102.5C 54.0444,102.896 56.2111,102.229 58,100.5C 59.6768,101.516 61.3435,102.516 63,103.5C 64.8077,102.31 66.641,102.31 68.5,103.5C 69.6473,103.182 70.4806,102.516 71,101.5C 71.7387,102.574 72.7387,103.241 74,103.5C 77.6794,100.418 80.5128,101.085 82.5,105.5C 83.5836,104.335 84.4169,103.002 85,101.5C 85.956,102.894 87.2894,103.561 89,103.5C 91.6667,102.833 94.3333,102.167 97,101.5C 99.6789,102.895 102.512,103.561 105.5,103.5C 105.5,102.167 105.5,100.833 105.5,99.5C 109.637,100.487 113.637,101.82 117.5,103.5C 117.343,102.127 117.51,100.793 118,99.5C 120.868,101.183 124.034,102.183 127.5,102.5C 129.644,101.312 131.811,101.312 134,102.5C 135.895,102.385 137.562,101.718 139,100.5C 139.483,101.448 139.649,102.448 139.5,103.5C 145.54,103.053 151.54,102.386 157.5,101.5C 160.877,103.325 164.543,103.992 168.5,103.5C 168.5,102.167 168.5,100.833 168.5,99.5C 170.5,99.5 172.5,99.5 174.5,99.5C 174.5,100.5 174.5,101.5 174.5,102.5C 176.167,102.5 177.833,102.5 179.5,102.5 Z"/></g>
<g><path style="opacity:1" fill="#0086fe" d="M 179.5,126.5 C 179.5,132.5 179.5,138.5 179.5,144.5C 177.167,144.5 174.833,144.5 172.5,144.5C 172.5,145.833 172.5,147.167 172.5,148.5C 168.256,147.188 163.922,146.688 159.5,147C 158.663,148.011 158.33,149.178 158.5,150.5C 153.204,149.633 148.371,147.633 144,144.5C 143.51,145.793 143.343,147.127 143.5,148.5C 137.2,147.687 130.866,147.687 124.5,148.5C 124.762,147.022 124.429,145.689 123.5,144.5C 121.022,145.722 120.022,147.722 120.5,150.5C 118.833,150.5 117.167,150.5 115.5,150.5C 115.817,147.428 115.484,144.428 114.5,141.5C 113.614,142.325 113.281,143.325 113.5,144.5C 111.302,145.014 109.302,146.014 107.5,147.5C 106.522,147.023 105.689,146.357 105,145.5C 103.556,147.155 101.722,147.822 99.5,147.5C 99.5,146.5 99.5,145.5 99.5,144.5C 98.5,144.5 97.5,144.5 96.5,144.5C 96.719,145.675 96.3857,146.675 95.5,147.5C 93.5469,148.024 91.8802,149.024 90.5,150.5C 86.2198,146.444 81.2198,145.444 75.5,147.5C 72.4351,147.029 69.6017,146.029 67,144.5C 64.23,146.944 61.3967,146.944 58.5,144.5C 57.6143,145.325 57.281,146.325 57.5,147.5C 53.5,147.833 49.5,148.167 45.5,148.5C 45.5,147.167 45.5,145.833 45.5,144.5C 43.8008,144.34 42.1341,144.506 40.5,145C 37.5845,146.922 34.5845,148.756 31.5,150.5C 30.6922,148.577 30.1922,146.577 30,144.5C 27.5918,147.625 24.4251,149.625 20.5,150.5C 19.1936,149.088 18.3603,147.421 18,145.5C 16.7308,146.905 16.2308,148.571 16.5,150.5C 14.8333,150.5 13.1667,150.5 11.5,150.5C 11.7989,148.396 11.4656,146.396 10.5,144.5C 9.61432,145.325 9.28099,146.325 9.5,147.5C 7.83333,147.5 6.16667,147.5 4.5,147.5C 4.64945,146.448 4.48278,145.448 4,144.5C 3.0041,146.66 1.5041,148.327 -0.5,149.5C -0.5,141.833 -0.5,134.167 -0.5,126.5C 4.6155,125.05 9.6155,124.05 14.5,123.5C 21.4303,125.995 28.4303,126.495 35.5,125C 37.8332,121.573 38.9998,122.073 39,126.5C 39.5613,127.022 40.228,127.355 41,127.5C 49.1926,124.921 57.3592,124.921 65.5,127.5C 65.5,126.167 65.5,124.833 65.5,123.5C 69.2303,124.797 73.0636,125.797 77,126.5C 80.6028,125.387 84.1028,124.054 87.5,122.5C 87.5,123.5 87.5,124.5 87.5,125.5C 91.5514,124.547 95.5514,124.213 99.5,124.5C 102.054,124.98 104.388,125.98 106.5,127.5C 108.397,127.272 109.73,126.272 110.5,124.5C 111.249,126.012 112.416,127.012 114,127.5C 115.68,126.453 117.514,125.787 119.5,125.5C 122.098,126.149 124.598,126.149 127,125.5C 129.667,128.167 132.333,128.167 135,125.5C 136.396,126.394 137.896,127.061 139.5,127.5C 141.817,126.18 143.817,124.514 145.5,122.5C 146.386,123.325 146.719,124.325 146.5,125.5C 150.2,126.132 153.867,126.632 157.5,127C 158.09,125.491 158.756,123.991 159.5,122.5C 160.429,123.689 160.762,125.022 160.5,126.5C 164.515,126.633 168.182,125.633 171.5,123.5C 173.578,125.986 176.245,126.986 179.5,126.5 Z"/></g>
<g><path style="opacity:0.985" fill="#008cfe" d="M 179.5,144.5 C 179.5,150.167 179.5,155.833 179.5,161.5C 178.6,164.395 177.267,167.062 175.5,169.5C 174.5,169.5 173.5,169.5 172.5,169.5C 172.5,170.5 172.5,171.5 172.5,172.5C 171.5,172.5 170.5,172.5 169.5,172.5C 169.5,173.5 169.5,174.5 169.5,175.5C 167.062,177.267 164.395,178.6 161.5,179.5C 113.5,179.5 65.5,179.5 17.5,179.5C 14.6047,178.6 11.9381,177.267 9.5,175.5C 9.5,174.5 9.5,173.5 9.5,172.5C 8.5,172.5 7.5,172.5 6.5,172.5C 6.5,171.5 6.5,170.5 6.5,169.5C 5.5,169.5 4.5,169.5 3.5,169.5C 1.73328,167.062 0.399943,164.395 -0.5,161.5C -0.5,157.5 -0.5,153.5 -0.5,149.5C 1.5041,148.327 3.0041,146.66 4,144.5C 4.48278,145.448 4.64945,146.448 4.5,147.5C 6.16667,147.5 7.83333,147.5 9.5,147.5C 9.28099,146.325 9.61432,145.325 10.5,144.5C 11.4656,146.396 11.7989,148.396 11.5,150.5C 13.1667,150.5 14.8333,150.5 16.5,150.5C 16.2308,148.571 16.7308,146.905 18,145.5C 18.3603,147.421 19.1936,149.088 20.5,150.5C 24.4251,149.625 27.5918,147.625 30,144.5C 30.1922,146.577 30.6922,148.577 31.5,150.5C 34.5845,148.756 37.5845,146.922 40.5,145C 42.1341,144.506 43.8008,144.34 45.5,144.5C 45.5,145.833 45.5,147.167 45.5,148.5C 49.5,148.167 53.5,147.833 57.5,147.5C 57.281,146.325 57.6143,145.325 58.5,144.5C 61.3967,146.944 64.23,146.944 67,144.5C 69.6017,146.029 72.4351,147.029 75.5,147.5C 81.2198,145.444 86.2198,146.444 90.5,150.5C 91.8802,149.024 93.5469,148.024 95.5,147.5C 96.3857,146.675 96.719,145.675 96.5,144.5C 97.5,144.5 98.5,144.5 99.5,144.5C 99.5,145.5 99.5,146.5 99.5,147.5C 101.722,147.822 103.556,147.155 105,145.5C 105.689,146.357 106.522,147.023 107.5,147.5C 109.302,146.014 111.302,145.014 113.5,144.5C 113.281,143.325 113.614,142.325 114.5,141.5C 115.484,144.428 115.817,147.428 115.5,150.5C 117.167,150.5 118.833,150.5 120.5,150.5C 120.022,147.722 121.022,145.722 123.5,144.5C 124.429,145.689 124.762,147.022 124.5,148.5C 130.866,147.687 137.2,147.687 143.5,148.5C 143.343,147.127 143.51,145.793 144,144.5C 148.371,147.633 153.204,149.633 158.5,150.5C 158.33,149.178 158.663,148.011 159.5,147C 163.922,146.688 168.256,147.188 172.5,148.5C 172.5,147.167 172.5,145.833 172.5,144.5C 174.833,144.5 177.167,144.5 179.5,144.5 Z"/></g>
</svg>
